<svg xmlns="http://www.w3.org/2000/svg" xmlns:xlink="http://www.w3.org/1999/xlink" width="500" zoomAndPan="magnify" viewBox="0 0 375 374.999991" height="500" preserveAspectRatio="xMidYMid meet" version="1.0"><defs><g/><clipPath id="0f92fbc4a8"><path d="M 113 187.125 L 256 187.125 L 256 187.875 L 113 187.875 Z M 113 187.125 " clip-rule="nonzero"/></clipPath><clipPath id="bbe6561ec1"><path d="M 128 187.125 L 244 187.125 L 244 187.875 L 128 187.875 Z M 128 187.125 " clip-rule="nonzero"/></clipPath><clipPath id="7fbf27d2a5"><path d="M 132 187.125 L 207 187.125 L 207 187.875 L 132 187.875 Z M 132 187.125 " clip-rule="nonzero"/></clipPath></defs><g clip-path="url(#0f92fbc4a8)"><path fill="#000000" d="M 253.644531 187.21875 C 206.839844 187.328125 160.035156 187.875 113.234375 187.222656 C 153.015625 187.859375 192.820312 187.609375 232.601562 187.363281 C 232.644531 187.363281 261.765625 187.214844 253.644531 187.21875 Z M 253.644531 187.21875 " fill-opacity="1" fill-rule="nonzero"/></g><g clip-path="url(#bbe6561ec1)"><path fill="#000000" d="M 134.160156 187.554688 C 170.453125 187.242188 206.761719 187.746094 243.050781 187.125 C 207.851562 187.566406 172.644531 187.425781 137.441406 187.601562 C 132.679688 187.582031 120.78125 187.535156 134.160156 187.554688 Z M 134.160156 187.554688 " fill-opacity="1" fill-rule="nonzero"/></g><g clip-path="url(#7fbf27d2a5)"><path fill="#000000" d="M 206.003906 187.355469 C 181.617188 187.328125 157.226562 187.550781 132.835938 187.382812 C 155.875 187.625 178.910156 187.472656 201.945312 187.402344 C 180.90625 187.25 159.863281 187.640625 138.824219 187.328125 C 161.183594 187.660156 183.558594 187.332031 205.917969 187.355469 C 205.949219 187.355469 205.976562 187.355469 206.003906 187.355469 Z M 206.003906 187.355469 " fill-opacity="1" fill-rule="nonzero"/></g><path stroke-linecap="butt" transform="matrix(1.171771, 0, 0, 1.171771, 51.954032, 138.664692)" fill="none" stroke-linejoin="miter" d="M 15.303923 62.135001 C 17.530788 63.191762 20.121019 63.718475 23.081283 63.718475 C 25.96154 63.718475 28.491765 63.201762 30.668626 62.165003 C 32.845487 61.121577 34.545638 59.651446 35.765747 57.75461 C 36.985856 55.851107 37.599244 53.620908 37.599244 51.06068 C 37.599244 48.863818 37.195875 47.086993 36.395803 45.730205 C 35.595732 44.363417 34.545638 43.279987 33.245522 42.476582 C 31.94874 41.67651 30.518613 41.026453 28.95514 40.529742 C 27.401668 40.029697 25.844863 39.582991 24.28139 39.182955 C 22.721251 38.779586 21.297791 38.312877 20.02101 37.776163 C 18.740896 37.229447 17.700804 36.50605 16.900732 35.605969 C 16.097327 34.709223 15.697292 33.499115 15.697292 31.975646 C 15.697292 29.778783 16.507364 28.008626 18.130842 26.67184 C 19.750986 25.335054 21.897844 24.664994 24.57475 24.664994 C 26.304904 24.664994 27.855042 24.968355 29.231831 25.571742 C 30.611954 26.168462 31.878734 27.061875 33.042171 28.255314 L 36.339131 24.958354 C 35.019014 23.484889 33.358866 22.334787 31.358688 21.514713 C 29.365177 20.69464 27.104975 20.284604 24.57475 20.284604 C 21.781167 20.284604 19.334282 20.784648 17.237429 21.77807 C 15.137242 22.774826 13.507096 24.184951 12.343659 26.011781 C 11.180222 27.82861 10.600171 29.978801 10.600171 32.459022 C 10.600171 34.539208 10.990205 36.226025 11.773609 37.526141 C 12.553678 38.826256 13.593771 39.87635 14.893887 40.676421 C 16.190669 41.476493 17.607462 42.129884 19.140932 42.63993 C 20.684403 43.136641 22.227874 43.596682 23.768011 44.016719 C 25.311482 44.436757 26.734942 44.946802 28.031724 45.553523 C 29.33184 46.150243 30.371933 46.936979 31.152002 47.913733 C 31.932072 48.887153 32.32544 50.177268 32.32544 51.780744 C 32.32544 54.014277 31.512035 55.837773 29.89189 57.244565 C 28.271746 58.638022 26.058215 59.338085 23.257966 59.338085 C 21.264454 59.338085 19.41429 58.94805 17.704137 58.164647 C 16.007319 57.384577 14.420511 56.174469 12.943713 54.534323 L 9.706758 57.784613 C 11.220226 59.621443 13.087059 61.071573 15.303923 62.135001 Z M 45.216589 21.001334 L 45.216589 62.998411 L 50.38705 62.998411 L 50.38705 43.680022 L 73.239087 43.680022 L 73.239087 62.998411 L 78.336208 62.998411 L 78.336208 21.001334 L 73.239087 21.001334 L 73.239087 39.006272 L 50.38705 39.006272 L 50.38705 21.001334 Z M 96.364482 60.991565 C 99.431422 62.808394 102.925066 63.718475 106.838749 63.718475 C 110.765765 63.718475 114.256076 62.808394 117.313016 60.991565 C 120.369955 59.16807 122.766835 56.637844 124.50699 53.404222 C 126.253813 50.163934 127.127224 46.403599 127.127224 42.126551 L 127.127224 41.583169 C 127.127224 37.346125 126.253813 33.635794 124.50699 30.452177 C 122.766835 27.26856 120.369955 24.778338 117.313016 22.981511 C 114.256076 21.184684 110.765765 20.284604 106.838749 20.284604 C 102.925066 20.284604 99.431422 21.184684 96.364482 22.981511 C 93.310876 24.778338 90.910662 27.26856 89.173841 30.452177 C 87.433686 33.635794 86.566942 37.346125 86.566942 41.583169 L 86.566942 42.126551 C 86.566942 46.403599 87.433686 50.163934 89.173841 53.404222 C 90.910662 56.637844 93.310876 59.16807 96.364482 60.991565 Z M 114.602774 56.67118 C 112.345906 58.04797 109.759009 58.738031 106.838749 58.738031 C 103.918488 58.738031 101.328257 58.04797 99.061389 56.67118 C 96.804521 55.294391 95.027696 53.367553 93.72758 50.887331 C 92.430798 48.403777 91.78074 45.48685 91.78074 42.126551 L 91.78074 41.583169 C 91.78074 38.302876 92.430798 35.442622 93.72758 32.99907 C 95.027696 30.558853 96.804521 28.658684 99.061389 27.301896 C 101.328257 25.945108 103.918488 25.265048 106.838749 25.265048 C 109.759009 25.265048 112.345906 25.945108 114.602774 27.301896 C 116.869643 28.658684 118.649801 30.558853 119.949917 32.99907 C 121.250033 35.442622 121.896757 38.302876 121.896757 41.583169 L 121.896757 42.126551 C 121.896757 45.48685 121.250033 48.403777 119.949917 50.887331 C 118.649801 53.367553 116.869643 55.294391 114.602774 56.67118 Z M 135.27795 21.001334 L 135.27795 62.998411 L 140.388406 62.998411 L 140.388406 46.140242 L 147.705725 46.140242 L 158.199993 62.998411 L 164.14719 62.998411 L 153.169545 45.723538 C 155.466416 45.246829 157.423257 44.36675 159.036735 43.076635 C 161.60363 41.036453 162.890411 37.859504 162.890411 33.542452 C 162.890411 29.422085 161.60363 26.301807 159.036735 24.181618 C 156.476506 22.061429 153.059535 21.001334 148.782487 21.001334 Z M 140.388406 41.759851 L 140.388406 25.381725 L 148.605805 25.381725 C 151.322714 25.381725 153.509575 26.105123 155.169723 27.551918 C 156.829871 28.985379 157.659945 31.022228 157.659945 33.659129 C 157.659945 36.462712 156.829871 38.512895 155.169723 39.813011 C 153.509575 41.109793 151.322714 41.759851 148.605805 41.759851 Z M 167.077451 21.001334 L 167.077451 25.675084 L 179.748581 25.675084 L 179.748581 62.998411 L 184.902373 62.998411 L 184.902373 25.675084 L 197.620174 25.675084 L 197.620174 21.001334 Z M 216.941896 40.343058 L 229.29633 21.001334 L 234.876828 21.001334 L 219.525459 45.246829 L 219.525459 62.998411 L 214.354999 62.998411 L 214.354999 45.246829 L 199.00363 21.001334 L 204.584128 21.001334 Z M 216.941896 40.343058 " stroke="#e68b68" stroke-width="7.725" stroke-opacity="1" stroke-miterlimit="4"/><g fill="#faf5e1" fill-opacity="1"><g transform="translate(60.650767, 212.486237)"><g><path d="M 18.359375 0.84375 C 14.890625 0.84375 11.851562 0.222656 9.25 -1.015625 C 6.644531 -2.265625 4.453125 -3.96875 2.671875 -6.125 L 6.46875 -9.921875 C 8.207031 -7.992188 10.070312 -6.570312 12.0625 -5.65625 C 14.050781 -4.75 16.21875 -4.296875 18.5625 -4.296875 C 21.84375 -4.296875 24.429688 -5.113281 26.328125 -6.75 C 28.234375 -8.394531 29.1875 -10.53125 29.1875 -13.15625 C 29.1875 -15.03125 28.726562 -16.539062 27.8125 -17.6875 C 26.894531 -18.832031 25.675781 -19.753906 24.15625 -20.453125 C 22.632812 -21.160156 20.96875 -21.757812 19.15625 -22.25 C 17.351562 -22.75 15.550781 -23.289062 13.75 -23.875 C 11.945312 -24.457031 10.28125 -25.21875 8.75 -26.15625 C 7.226562 -27.09375 6.007812 -28.320312 5.09375 -29.84375 C 4.1875 -31.375 3.734375 -33.359375 3.734375 -35.796875 C 3.734375 -38.703125 4.410156 -41.21875 5.765625 -43.34375 C 7.128906 -45.476562 9.039062 -47.128906 11.5 -48.296875 C 13.957031 -49.472656 16.828125 -50.0625 20.109375 -50.0625 C 23.066406 -50.0625 25.71875 -49.582031 28.0625 -48.625 C 30.40625 -47.664062 32.347656 -46.316406 33.890625 -44.578125 L 30.03125 -40.71875 C 28.664062 -42.125 27.175781 -43.175781 25.5625 -43.875 C 23.945312 -44.582031 22.128906 -44.9375 20.109375 -44.9375 C 16.972656 -44.9375 14.453125 -44.148438 12.546875 -42.578125 C 10.648438 -41.003906 9.703125 -38.929688 9.703125 -36.359375 C 9.703125 -34.578125 10.171875 -33.15625 11.109375 -32.09375 C 12.046875 -31.039062 13.265625 -30.195312 14.765625 -29.5625 C 16.265625 -28.9375 17.925781 -28.390625 19.75 -27.921875 C 21.582031 -27.453125 23.410156 -26.921875 25.234375 -26.328125 C 27.066406 -25.742188 28.742188 -24.984375 30.265625 -24.046875 C 31.796875 -23.109375 33.03125 -21.84375 33.96875 -20.25 C 34.90625 -18.65625 35.375 -16.570312 35.375 -14 C 35.375 -11 34.65625 -8.382812 33.21875 -6.15625 C 31.789062 -3.925781 29.800781 -2.203125 27.25 -0.984375 C 24.695312 0.234375 21.734375 0.84375 18.359375 0.84375 Z M 18.359375 0.84375 "/></g></g></g><g fill="#faf5e1" fill-opacity="1"><g transform="translate(98.827017, 212.486237)"><g><path d="M 38.953125 0 L 38.953125 -49.21875 L 44.9375 -49.21875 L 44.9375 0 Z M 6.125 0 L 6.125 -49.21875 L 12.171875 -49.21875 L 12.171875 0 Z M 9.359375 -22.640625 L 9.359375 -28.125 L 41.203125 -28.125 L 41.203125 -22.640625 Z M 9.359375 -22.640625 "/></g></g></g><g fill="#faf5e1" fill-opacity="1"><g transform="translate(149.939608, 212.486237)"><g><path d="M 27.21875 0.84375 C 22.625 0.84375 18.53125 -0.222656 14.9375 -2.359375 C 11.351562 -4.492188 8.539062 -7.457031 6.5 -11.25 C 4.46875 -15.050781 3.453125 -19.457031 3.453125 -24.46875 L 3.453125 -25.109375 C 3.453125 -30.078125 4.46875 -34.421875 6.5 -38.140625 C 8.539062 -41.867188 11.351562 -44.785156 14.9375 -46.890625 C 18.53125 -49.003906 22.625 -50.0625 27.21875 -50.0625 C 31.8125 -50.0625 35.898438 -49.003906 39.484375 -46.890625 C 43.066406 -44.785156 45.878906 -41.867188 47.921875 -38.140625 C 49.960938 -34.421875 50.984375 -30.078125 50.984375 -25.109375 L 50.984375 -24.46875 C 50.984375 -19.457031 49.960938 -15.050781 47.921875 -11.25 C 45.878906 -7.457031 43.066406 -4.492188 39.484375 -2.359375 C 35.898438 -0.222656 31.8125 0.84375 27.21875 0.84375 Z M 27.21875 -5 C 30.632812 -5 33.664062 -5.804688 36.3125 -7.421875 C 38.96875 -9.035156 41.054688 -11.296875 42.578125 -14.203125 C 44.097656 -17.109375 44.859375 -20.53125 44.859375 -24.46875 L 44.859375 -25.109375 C 44.859375 -28.953125 44.097656 -32.300781 42.578125 -35.15625 C 41.054688 -38.019531 38.96875 -40.25 36.3125 -41.84375 C 33.664062 -43.4375 30.632812 -44.234375 27.21875 -44.234375 C 23.789062 -44.234375 20.753906 -43.4375 18.109375 -41.84375 C 15.460938 -40.25 13.375 -38.019531 11.84375 -35.15625 C 10.320312 -32.300781 9.5625 -28.953125 9.5625 -25.109375 L 9.5625 -24.46875 C 9.5625 -20.53125 10.320312 -17.109375 11.84375 -14.203125 C 13.375 -11.296875 15.460938 -9.035156 18.109375 -7.421875 C 20.753906 -5.804688 23.789062 -5 27.21875 -5 Z M 27.21875 -5 "/></g></g></g><g fill="#faf5e1" fill-opacity="1"><g transform="translate(204.356581, 212.486237)"><g><path d="M 6.125 0 L 6.125 -49.21875 L 21.9375 -49.21875 C 26.957031 -49.21875 30.96875 -47.972656 33.96875 -45.484375 C 36.96875 -43.003906 38.46875 -39.351562 38.46875 -34.53125 C 38.46875 -29.46875 36.96875 -25.738281 33.96875 -23.34375 C 30.96875 -20.957031 26.957031 -19.765625 21.9375 -19.765625 L 8.859375 -19.765625 L 8.859375 -24.890625 L 21.734375 -24.890625 C 24.921875 -24.890625 27.484375 -25.648438 29.421875 -27.171875 C 31.367188 -28.703125 32.34375 -31.109375 32.34375 -34.390625 C 32.34375 -37.484375 31.367188 -39.875 29.421875 -41.5625 C 27.484375 -43.25 24.921875 -44.09375 21.734375 -44.09375 L 9.640625 -44.09375 L 12.09375 -46.40625 L 12.09375 0 Z M 32.984375 0 L 19.0625 -22.359375 L 25.734375 -22.359375 L 39.9375 0 Z M 32.984375 0 "/></g></g></g><g fill="#faf5e1" fill-opacity="1"><g transform="translate(246.751195, 212.486237)"><g><path d="M 15.828125 0 L 15.828125 -46.625 L 21.875 -46.625 L 21.875 0 Z M 0.984375 -43.734375 L 0.984375 -49.21875 L 36.78125 -49.21875 L 36.78125 -43.734375 Z M 0.984375 -43.734375 "/></g></g></g><g fill="#faf5e1" fill-opacity="1"><g transform="translate(284.505608, 212.486237)"><g><path d="M 22.859375 -24.6875 L 20.46875 -24.6875 L 36.140625 -49.21875 L 42.6875 -49.21875 L 24.6875 -20.8125 L 24.6875 0 L 18.640625 0 L 18.640625 -20.8125 L 0.640625 -49.21875 L 7.171875 -49.21875 Z M 22.859375 -24.6875 "/></g></g></g></svg>